<?xml version="1.0"?>
<svg xmlns="http://www.w3.org/2000/svg" xmlns:xlink="http://www.w3.org/1999/xlink" version="1.1" id="Capa_1" x="0px" y="0px" viewBox="0 0 512 512" style="enable-background:new 0 0 512 512;" xml:space="preserve" width="512px" height="512px" class=""><g><g>
	<g>
		<path d="M340.263,258.396c-1.71-1.526-3.634-2.746-5.48-4.06c15.111-9.519,11.494-29.661,1.737-37.468    c-10.271-8.214-19.016-6.561-57.208-6.594c-1.699,0-3.065,1.377-3.065,3.062v36.659h-10.688c-0.982,0-1.906,0.472-2.481,1.269    l-3.284,4.544c-0.673,0.932-0.768,2.163-0.245,3.186c0.524,1.024,1.577,1.668,2.727,1.668h14.029v40.057    c0,1.69,1.37,3.06,3.06,3.061c33.475,0.029,38.254-0.011,44.205-0.898c14.511-2.157,23.587-11.524,24.277-25.056    C348.26,269.797,345.709,263.261,340.263,258.396z M287.963,221.288L287.963,221.288c1.003-0.163,21.661-0.122,28.113,0.03    c2.708,0.064,5.701,0.619,8.656,1.603c5.402,1.804,8.366,5.813,8.569,11.597c0.219,6.337-2.309,10.754-7.513,13.127    c-6.462,2.947-8.322,2.346-37.824,2.33V221.288z M314.419,292.91c-3.565,0.037-25.076,0.115-26.468-0.052v-32.23    c26.616,0,47.366-2.885,48.32,14.588C336.955,287.708,327.183,292.79,314.419,292.91z" data-original="#000000" class="active-path" data-old_color="#b7b7b7" fill="#b7b7b7"/>
	</g>
</g><g>
	<g>
		<path d="M389.86,208.608c-29.555,3.934-43.024,32.228-37.299,60.768c4.623,23.056,22.761,37.651,45.838,36.333    C459.794,302.229,452.499,200.162,389.86,208.608z M395.377,294.715c-13.146-0.225-22.428-6.346-28.375-18.714    c-2.668-5.547-3.954-11.774-3.931-19.022c0.37-46.984,56.11-49.949,64.588-10.887    C432.948,270.465,420.749,295.127,395.377,294.715z" data-original="#000000" class="active-path" data-old_color="#b7b7b7" fill="#b7b7b7"/>
	</g>
</g><g>
	<g>
		<path d="M479.09,254.85c31.471-42.702,30.627-40.487,29.458-42.804c-1.083-2.144-2.866-1.681-8.869-1.681    c-2.132,0-0.396-1.562-27.55,35.281c-27.063-36.683-25.378-35.208-27.52-35.208c-6.027,0-7.796-0.455-8.874,1.681    c-1.19,2.355-1.944,0.2,29.427,42.734c-34.869,47.507-33.703,44.847-32.533,47.16c0.522,1.029,1.578,1.678,2.732,1.678    c6.308,0,7.45,0.344,8.622-1.244l28.144-38.167c30.527,41.366,28.451,39.342,30.581,39.342c6.027,0,7.797,0.456,8.878-1.678    C512.765,299.615,513.783,302.101,479.09,254.85z" data-original="#000000" class="active-path" data-old_color="#b7b7b7" fill="#b7b7b7"/>
	</g>
</g><g>
	<g>
		<path d="M269.229,298.554l-32.111-43.704c31.37-42.534,30.646-40.471,29.474-42.796c-1.084-2.144-2.863-1.682-8.868-1.682    c-2.13,0-0.4-1.553-27.575,35.281c-27.037-36.702-25.361-35.234-27.502-35.234h-6.108c-2.502,0-3.953,2.857-2.464,4.877    l29.146,39.552l-32.285,43.95c-0.683,0.93-0.785,2.165-0.264,3.195c0.521,1.029,1.578,1.679,2.732,1.679h6.171    c0.973,0,1.887-0.462,2.464-1.245c9.329-12.654,18.668-25.32,28.128-38.144c30.556,41.409,28.482,39.39,30.612,39.39    c0.095,0,6.213,0,6.183,0C269.633,303.673,270.997,300.499,269.229,298.554z" data-original="#000000" class="active-path" data-old_color="#b7b7b7" fill="#b7b7b7"/>
	</g>
</g><g>
	<g>
		<path d="M168.572,256.965c0-1.658-0.068-3.402-0.214-5.486c-0.29-4.13-3.883-7.25-8.005-6.955    c-4.132,0.29-7.246,3.874-6.956,8.005c0.121,1.727,0.177,3.138,0.177,4.437c0,8.341-1.446,16.421-4.254,24.003    c-4.546-13.193-14.402-31.799-34.454-57.419c11.113-10.24,17.263-12.893,19.727-13.58c3.481,3.697,6.585,7.838,9.253,12.345    c2.11,3.563,6.71,4.742,10.274,2.633s4.742-6.709,2.633-10.274c-3.837-6.48-8.436-12.354-13.671-17.46    c-0.43-0.419-0.909-0.786-1.427-1.091c-1.638-0.966-4.091-1.717-7.6-1.312c0.53-2.721-0.472-5.62-2.81-7.402    c-0.24-0.183-0.629-0.456-1.169-0.761c-10.623-6.479-25.418-13.877-45.834-13.877c-20.006,0-33.048,6.432-45.686,13.635    c-1.183,0.575-1.965,1.135-2.426,1.517c-2.075,1.72-2.998,4.34-2.634,6.852c-2.901-0.139-5.908,0.395-8.005,2.44    C9.291,213.01,0,234.789,0,256.966c0,19.044,6.543,37.697,18.425,52.526l5.852-4.689l0.073-0.043    c-0.605,4.018-0.808,10.86,3.742,14.782c17.056,14.712,34.214,19.689,38.56,19.689c8.862,0,10.326-12.862,1.639-14.817    c-10.276-2.312-19.597-7.162-29.224-15.226c-0.207-7.093,12.503-30.864,44.918-57.531c33.059,28.005,45.671,50.661,45.224,57.713    c-11.036,8.439-19.571,12.819-29.247,15.041c-4.036,0.927-6.558,4.95-5.63,8.987c0.926,4.036,4.949,6.557,8.987,5.63    c12.062-2.769,22.818-8.298,35.971-18.491c4.704-3.649,5.608-10.172,4.53-16.014c0.739,0.433-0.174-0.242,6.329,4.967    C162.03,294.658,168.572,276.004,168.572,256.965z M97.047,189.004c-4.039,1.571-8.304,3.524-12.787,5.854    c-4.579-2.346-8.932-4.305-13.049-5.877C79.014,187.436,88.326,187.274,97.047,189.004z M19.252,280.97    c-2.809-7.582-4.253-15.661-4.253-24.004c0-16.974,7.054-34.337,18.988-47.004c2.459,0.676,8.578,3.313,19.718,13.586    C33.651,249.172,23.797,267.776,19.252,280.97z M88.81,236.16c-2.723-2.225-6.624-2.26-9.386-0.085    c-23.721,18.68-37.322,35.041-45.06,47.037c4.486-11.656,14.29-29.525,35.295-55.533c2.414-2.99,2.178-7.32-0.547-10.03    c-8.344-8.295-15.787-14.334-22.287-18.114c9.626-1.55,25.353,5.881,33.887,10.508c2.235,1.211,4.943,1.213,7.189-0.023    c16.978-9.344,26.672-10.74,30.939-10.74c1.346,0,2.299,0.132,2.93,0.265c-5.92,3.44-13.255,9.099-22.314,18.103    c-2.726,2.71-2.962,7.041-0.547,10.031c21.845,27.049,31.575,45.291,35.809,56.899C127.181,272.723,113.53,256.366,88.81,236.16z" data-original="#000000" class="active-path" data-old_color="#b7b7b7" fill="#b7b7b7"/>
	</g>
</g></g> </svg>
